<mxfile host="Electron" agent="Mozilla/5.0 (Windows NT 10.0; Win64; x64) AppleWebKit/537.36 (KHTML, like Gecko) draw.io/25.0.2 Chrome/128.0.6613.186 Electron/32.2.5 Safari/537.36" version="25.0.2">
  <diagram name="Seite-1" id="veC4ftOnskPGLoC5RiaW">
    <mxGraphModel dx="1050" dy="629" grid="1" gridSize="10" guides="1" tooltips="1" connect="1" arrows="1" fold="1" page="1" pageScale="1" pageWidth="827" pageHeight="1169" math="0" shadow="0">
      <root>
        <mxCell id="0" />
        <mxCell id="1" parent="0" />
        <mxCell id="NMYGbekE-nGPQrnc-Rhj-5" value="Animalshelter" style="strokeWidth=1;shadow=0;dashed=0;align=center;html=1;shape=mxgraph.mockup.containers.window;align=left;verticalAlign=top;spacingLeft=8;strokeColor2=#008cff;strokeColor3=#c4c4c4;fontColor=#ffffff;mainText=;fontSize=17;labelBackgroundColor=none;whiteSpace=wrap;" parent="1" vertex="1">
          <mxGeometry x="70" y="100" width="670" height="430" as="geometry" />
        </mxCell>
        <mxCell id="NMYGbekE-nGPQrnc-Rhj-141" value="&lt;font style=&quot;font-size: 33px;&quot;&gt;Tiere&lt;/font&gt;" style="strokeWidth=1;shadow=0;dashed=0;align=center;html=1;shape=mxgraph.mockup.buttons.button;strokeColor=#006EAF;fontColor=#ffffff;mainText=;buttonStyle=round;fontSize=17;fontStyle=1;fillColor=#1ba1e2;whiteSpace=wrap;fillStyle=auto;" parent="1" vertex="1">
          <mxGeometry x="110" y="170" width="160" height="140" as="geometry" />
        </mxCell>
        <mxCell id="HOQNtZUdSAu9Ry4eyFuE-2" value="&lt;span style=&quot;font-size: 33px;&quot;&gt;Rooms&lt;/span&gt;" style="strokeWidth=1;shadow=0;dashed=0;align=center;html=1;shape=mxgraph.mockup.buttons.button;strokeColor=#3700CC;fontColor=#ffffff;mainText=;buttonStyle=round;fontSize=17;fontStyle=1;fillColor=#6a00ff;whiteSpace=wrap;fillStyle=auto;" vertex="1" parent="1">
          <mxGeometry x="320" y="170" width="160" height="140" as="geometry" />
        </mxCell>
        <mxCell id="HOQNtZUdSAu9Ry4eyFuE-3" value="&lt;font style=&quot;font-size: 33px;&quot;&gt;Adoption&lt;/font&gt;" style="strokeWidth=1;shadow=0;dashed=0;align=center;html=1;shape=mxgraph.mockup.buttons.button;strokeColor=#A50040;fontColor=#ffffff;mainText=;buttonStyle=round;fontSize=17;fontStyle=1;fillColor=#d80073;whiteSpace=wrap;fillStyle=auto;" vertex="1" parent="1">
          <mxGeometry x="530" y="170" width="160" height="140" as="geometry" />
        </mxCell>
        <mxCell id="HOQNtZUdSAu9Ry4eyFuE-4" value="&lt;font style=&quot;font-size: 33px;&quot;&gt;Pate&lt;/font&gt;" style="strokeWidth=1;shadow=0;dashed=0;align=center;html=1;shape=mxgraph.mockup.buttons.button;strokeColor=#6F0000;fontColor=#ffffff;mainText=;buttonStyle=round;fontSize=17;fontStyle=1;fillColor=#a20025;whiteSpace=wrap;fillStyle=auto;" vertex="1" parent="1">
          <mxGeometry x="110" y="340" width="160" height="140" as="geometry" />
        </mxCell>
        <mxCell id="HOQNtZUdSAu9Ry4eyFuE-5" value="&lt;font style=&quot;font-size: 33px;&quot;&gt;Pfleger&lt;/font&gt;" style="strokeWidth=1;shadow=0;dashed=0;align=center;html=1;shape=mxgraph.mockup.buttons.button;strokeColor=#432D57;fontColor=#ffffff;mainText=;buttonStyle=round;fontSize=17;fontStyle=1;fillColor=#76608a;whiteSpace=wrap;fillStyle=auto;" vertex="1" parent="1">
          <mxGeometry x="320" y="340" width="160" height="140" as="geometry" />
        </mxCell>
        <mxCell id="HOQNtZUdSAu9Ry4eyFuE-6" value="&lt;span style=&quot;font-size: 33px;&quot;&gt;Tierarzt&lt;/span&gt;" style="strokeWidth=1;shadow=0;dashed=0;align=center;html=1;shape=mxgraph.mockup.buttons.button;strokeColor=#6D1F00;fontColor=#ffffff;mainText=;buttonStyle=round;fontSize=17;fontStyle=1;fillColor=#a0522d;whiteSpace=wrap;fillStyle=auto;" vertex="1" parent="1">
          <mxGeometry x="530" y="340" width="160" height="140" as="geometry" />
        </mxCell>
      </root>
    </mxGraphModel>
  </diagram>
</mxfile>
